<mxfile host="app.diagrams.net" agent="Mozilla/5.0 (Macintosh; Intel Mac OS X 10_15_7) AppleWebKit/537.36 (KHTML, like Gecko) Chrome/129.0.0.0 Safari/537.36" version="24.7.17">
  <diagram name="Page-1" id="rt6qRCbAXjJx2F3r7gMw">
    <mxGraphModel grid="1" page="1" gridSize="10" guides="1" tooltips="1" connect="1" arrows="1" fold="1" pageScale="1" pageWidth="827" pageHeight="1169" math="0" shadow="0">
      <root>
        <mxCell id="0" />
        <mxCell id="1" parent="0" />
        <mxCell id="Hv0pnSTbvKc9YN80Ujr7-12" value="COSTUMER" style="rounded=0;whiteSpace=wrap;html=1;" vertex="1" parent="1">
          <mxGeometry x="40" y="40" width="160" height="40" as="geometry" />
        </mxCell>
        <mxCell id="Hv0pnSTbvKc9YN80Ujr7-14" value="phone" style="rounded=0;whiteSpace=wrap;html=1;" vertex="1" parent="1">
          <mxGeometry x="40" y="170" width="160" height="30" as="geometry" />
        </mxCell>
        <mxCell id="Hv0pnSTbvKc9YN80Ujr7-15" value="address" style="rounded=0;whiteSpace=wrap;html=1;" vertex="1" parent="1">
          <mxGeometry x="40" y="140" width="160" height="30" as="geometry" />
        </mxCell>
        <mxCell id="Hv0pnSTbvKc9YN80Ujr7-16" value="name" style="rounded=0;whiteSpace=wrap;html=1;align=center;" vertex="1" parent="1">
          <mxGeometry x="40" y="110" width="160" height="30" as="geometry" />
        </mxCell>
        <mxCell id="Hv0pnSTbvKc9YN80Ujr7-17" value="customer_id" style="rounded=0;whiteSpace=wrap;html=1;" vertex="1" parent="1">
          <mxGeometry x="40" y="80" width="160" height="30" as="geometry" />
        </mxCell>
        <mxCell id="Hv0pnSTbvKc9YN80Ujr7-20" value="" style="endArrow=none;html=1;rounded=0;" edge="1" parent="1">
          <mxGeometry width="50" height="50" relative="1" as="geometry">
            <mxPoint x="170" y="200" as="sourcePoint" />
            <mxPoint x="170" y="80" as="targetPoint" />
          </mxGeometry>
        </mxCell>
        <mxCell id="Hv0pnSTbvKc9YN80Ujr7-21" value="" style="endArrow=none;html=1;rounded=0;" edge="1" parent="1">
          <mxGeometry width="50" height="50" relative="1" as="geometry">
            <mxPoint x="70" y="200" as="sourcePoint" />
            <mxPoint x="70" y="80" as="targetPoint" />
          </mxGeometry>
        </mxCell>
        <mxCell id="Hv0pnSTbvKc9YN80Ujr7-22" value="int" style="text;html=1;align=center;verticalAlign=middle;whiteSpace=wrap;rounded=0;" vertex="1" parent="1">
          <mxGeometry x="20" y="80" width="60" height="30" as="geometry" />
        </mxCell>
        <mxCell id="Hv0pnSTbvKc9YN80Ujr7-23" value="PK" style="text;html=1;align=center;verticalAlign=middle;whiteSpace=wrap;rounded=0;" vertex="1" parent="1">
          <mxGeometry x="160" y="80" width="60" height="30" as="geometry" />
        </mxCell>
        <mxCell id="Hv0pnSTbvKc9YN80Ujr7-24" value="string" style="text;html=1;align=center;verticalAlign=middle;whiteSpace=wrap;rounded=0;" vertex="1" parent="1">
          <mxGeometry x="30" y="110" width="50" height="30" as="geometry" />
        </mxCell>
        <mxCell id="Hv0pnSTbvKc9YN80Ujr7-25" value="string" style="text;html=1;align=center;verticalAlign=middle;whiteSpace=wrap;rounded=0;" vertex="1" parent="1">
          <mxGeometry x="30" y="140" width="50" height="30" as="geometry" />
        </mxCell>
        <mxCell id="Hv0pnSTbvKc9YN80Ujr7-26" value="string" style="text;html=1;align=center;verticalAlign=middle;whiteSpace=wrap;rounded=0;" vertex="1" parent="1">
          <mxGeometry x="30" y="170" width="50" height="30" as="geometry" />
        </mxCell>
        <mxCell id="Hv0pnSTbvKc9YN80Ujr7-27" value="SALE" style="rounded=0;whiteSpace=wrap;html=1;" vertex="1" parent="1">
          <mxGeometry x="150" y="280" width="170" height="40" as="geometry" />
        </mxCell>
        <mxCell id="Hv0pnSTbvKc9YN80Ujr7-141" style="edgeStyle=orthogonalEdgeStyle;rounded=0;orthogonalLoop=1;jettySize=auto;html=1;entryX=0;entryY=0;entryDx=0;entryDy=0;curved=1;" edge="1" parent="1" source="Hv0pnSTbvKc9YN80Ujr7-28" target="Hv0pnSTbvKc9YN80Ujr7-106">
          <mxGeometry relative="1" as="geometry" />
        </mxCell>
        <mxCell id="Hv0pnSTbvKc9YN80Ujr7-28" value="customer_id" style="rounded=0;whiteSpace=wrap;html=1;" vertex="1" parent="1">
          <mxGeometry x="150" y="410" width="170" height="30" as="geometry" />
        </mxCell>
        <mxCell id="Hv0pnSTbvKc9YN80Ujr7-29" value="total_amount" style="rounded=0;whiteSpace=wrap;html=1;" vertex="1" parent="1">
          <mxGeometry x="150" y="380" width="170" height="30" as="geometry" />
        </mxCell>
        <mxCell id="Hv0pnSTbvKc9YN80Ujr7-30" value="sale_date" style="rounded=0;whiteSpace=wrap;html=1;align=center;" vertex="1" parent="1">
          <mxGeometry x="150" y="350" width="170" height="30" as="geometry" />
        </mxCell>
        <mxCell id="Hv0pnSTbvKc9YN80Ujr7-31" value="sale_id" style="rounded=0;whiteSpace=wrap;html=1;" vertex="1" parent="1">
          <mxGeometry x="150" y="320" width="170" height="30" as="geometry" />
        </mxCell>
        <mxCell id="Hv0pnSTbvKc9YN80Ujr7-32" value="" style="endArrow=none;html=1;rounded=0;" edge="1" parent="1">
          <mxGeometry width="50" height="50" relative="1" as="geometry">
            <mxPoint x="290" y="440" as="sourcePoint" />
            <mxPoint x="290" y="320" as="targetPoint" />
          </mxGeometry>
        </mxCell>
        <mxCell id="Hv0pnSTbvKc9YN80Ujr7-33" value="" style="endArrow=none;html=1;rounded=0;" edge="1" parent="1" source="Hv0pnSTbvKc9YN80Ujr7-72">
          <mxGeometry width="50" height="50" relative="1" as="geometry">
            <mxPoint x="190" y="440" as="sourcePoint" />
            <mxPoint x="190" y="320" as="targetPoint" />
          </mxGeometry>
        </mxCell>
        <mxCell id="Hv0pnSTbvKc9YN80Ujr7-34" value="PK" style="text;html=1;align=center;verticalAlign=middle;whiteSpace=wrap;rounded=0;" vertex="1" parent="1">
          <mxGeometry x="280" y="320" width="60" height="30" as="geometry" />
        </mxCell>
        <mxCell id="Hv0pnSTbvKc9YN80Ujr7-35" value="date" style="text;html=1;align=center;verticalAlign=middle;whiteSpace=wrap;rounded=0;" vertex="1" parent="1">
          <mxGeometry x="150" y="350" width="50" height="30" as="geometry" />
        </mxCell>
        <mxCell id="Hv0pnSTbvKc9YN80Ujr7-36" value="decimal" style="text;html=1;align=center;verticalAlign=middle;whiteSpace=wrap;rounded=0;" vertex="1" parent="1">
          <mxGeometry x="145" y="380" width="50" height="30" as="geometry" />
        </mxCell>
        <mxCell id="Hv0pnSTbvKc9YN80Ujr7-37" value="int" style="text;html=1;align=center;verticalAlign=middle;whiteSpace=wrap;rounded=0;" vertex="1" parent="1">
          <mxGeometry x="150" y="410" width="50" height="30" as="geometry" />
        </mxCell>
        <mxCell id="Hv0pnSTbvKc9YN80Ujr7-67" value="PK" style="text;html=1;align=center;verticalAlign=middle;whiteSpace=wrap;rounded=0;" vertex="1" parent="1">
          <mxGeometry x="440" y="560" width="60" height="30" as="geometry" />
        </mxCell>
        <mxCell id="Hv0pnSTbvKc9YN80Ujr7-75" value="" style="endArrow=none;html=1;rounded=0;entryX=0.75;entryY=0;entryDx=0;entryDy=0;" edge="1" parent="1" target="Hv0pnSTbvKc9YN80Ujr7-72">
          <mxGeometry width="50" height="50" relative="1" as="geometry">
            <mxPoint x="190" y="440" as="sourcePoint" />
            <mxPoint x="190" y="320" as="targetPoint" />
          </mxGeometry>
        </mxCell>
        <mxCell id="Hv0pnSTbvKc9YN80Ujr7-72" value="int" style="text;html=1;align=center;verticalAlign=middle;whiteSpace=wrap;rounded=0;" vertex="1" parent="1">
          <mxGeometry x="145" y="320" width="60" height="30" as="geometry" />
        </mxCell>
        <mxCell id="Hv0pnSTbvKc9YN80Ujr7-76" value="FK" style="text;html=1;align=center;verticalAlign=middle;whiteSpace=wrap;rounded=0;" vertex="1" parent="1">
          <mxGeometry x="280" y="410" width="60" height="30" as="geometry" />
        </mxCell>
        <mxCell id="Hv0pnSTbvKc9YN80Ujr7-80" value="EXPENSE" style="rounded=0;whiteSpace=wrap;html=1;" vertex="1" parent="1">
          <mxGeometry x="317.5" y="40" width="170" height="40" as="geometry" />
        </mxCell>
        <mxCell id="Hv0pnSTbvKc9YN80Ujr7-81" value="expense_date" style="rounded=0;whiteSpace=wrap;html=1;" vertex="1" parent="1">
          <mxGeometry x="317.5" y="170" width="170" height="30" as="geometry" />
        </mxCell>
        <mxCell id="Hv0pnSTbvKc9YN80Ujr7-82" value="amount" style="rounded=0;whiteSpace=wrap;html=1;" vertex="1" parent="1">
          <mxGeometry x="317.5" y="140" width="170" height="30" as="geometry" />
        </mxCell>
        <mxCell id="Hv0pnSTbvKc9YN80Ujr7-83" value="description" style="rounded=0;whiteSpace=wrap;html=1;align=center;" vertex="1" parent="1">
          <mxGeometry x="317.5" y="110" width="170" height="30" as="geometry" />
        </mxCell>
        <mxCell id="Hv0pnSTbvKc9YN80Ujr7-84" value="expense_id" style="rounded=0;whiteSpace=wrap;html=1;" vertex="1" parent="1">
          <mxGeometry x="317.5" y="80" width="170" height="30" as="geometry" />
        </mxCell>
        <mxCell id="Hv0pnSTbvKc9YN80Ujr7-85" value="" style="endArrow=none;html=1;rounded=0;" edge="1" parent="1">
          <mxGeometry width="50" height="50" relative="1" as="geometry">
            <mxPoint x="457.5" y="200" as="sourcePoint" />
            <mxPoint x="457.5" y="80" as="targetPoint" />
          </mxGeometry>
        </mxCell>
        <mxCell id="Hv0pnSTbvKc9YN80Ujr7-86" value="" style="endArrow=none;html=1;rounded=0;" edge="1" parent="1" source="Hv0pnSTbvKc9YN80Ujr7-91">
          <mxGeometry width="50" height="50" relative="1" as="geometry">
            <mxPoint x="357.5" y="200" as="sourcePoint" />
            <mxPoint x="357.5" y="80" as="targetPoint" />
          </mxGeometry>
        </mxCell>
        <mxCell id="Hv0pnSTbvKc9YN80Ujr7-87" value="string" style="text;html=1;align=center;verticalAlign=middle;whiteSpace=wrap;rounded=0;" vertex="1" parent="1">
          <mxGeometry x="317.5" y="110" width="50" height="30" as="geometry" />
        </mxCell>
        <mxCell id="Hv0pnSTbvKc9YN80Ujr7-88" value="decimal" style="text;html=1;align=center;verticalAlign=middle;whiteSpace=wrap;rounded=0;" vertex="1" parent="1">
          <mxGeometry x="312.5" y="140" width="50" height="30" as="geometry" />
        </mxCell>
        <mxCell id="Hv0pnSTbvKc9YN80Ujr7-89" value="date" style="text;html=1;align=center;verticalAlign=middle;whiteSpace=wrap;rounded=0;" vertex="1" parent="1">
          <mxGeometry x="317.5" y="170" width="50" height="30" as="geometry" />
        </mxCell>
        <mxCell id="Hv0pnSTbvKc9YN80Ujr7-90" value="" style="endArrow=none;html=1;rounded=0;entryX=0.75;entryY=0;entryDx=0;entryDy=0;" edge="1" parent="1" target="Hv0pnSTbvKc9YN80Ujr7-91">
          <mxGeometry width="50" height="50" relative="1" as="geometry">
            <mxPoint x="357.5" y="200" as="sourcePoint" />
            <mxPoint x="357.5" y="80" as="targetPoint" />
          </mxGeometry>
        </mxCell>
        <mxCell id="Hv0pnSTbvKc9YN80Ujr7-91" value="int" style="text;html=1;align=center;verticalAlign=middle;whiteSpace=wrap;rounded=0;" vertex="1" parent="1">
          <mxGeometry x="312.5" y="80" width="60" height="30" as="geometry" />
        </mxCell>
        <mxCell id="Hv0pnSTbvKc9YN80Ujr7-92" value="PK" style="text;html=1;align=center;verticalAlign=middle;whiteSpace=wrap;rounded=0;" vertex="1" parent="1">
          <mxGeometry x="440" y="80" width="60" height="30" as="geometry" />
        </mxCell>
        <mxCell id="Hv0pnSTbvKc9YN80Ujr7-93" value="PRODUCT" style="rounded=0;whiteSpace=wrap;html=1;" vertex="1" parent="1">
          <mxGeometry x="485" y="280" width="170" height="40" as="geometry" />
        </mxCell>
        <mxCell id="Hv0pnSTbvKc9YN80Ujr7-142" style="edgeStyle=orthogonalEdgeStyle;rounded=0;orthogonalLoop=1;jettySize=auto;html=1;entryX=1;entryY=0;entryDx=0;entryDy=0;curved=1;" edge="1" parent="1" source="Hv0pnSTbvKc9YN80Ujr7-94" target="Hv0pnSTbvKc9YN80Ujr7-106">
          <mxGeometry relative="1" as="geometry" />
        </mxCell>
        <mxCell id="Hv0pnSTbvKc9YN80Ujr7-94" value="stock_quantity" style="rounded=0;whiteSpace=wrap;html=1;" vertex="1" parent="1">
          <mxGeometry x="485" y="410" width="170" height="30" as="geometry" />
        </mxCell>
        <mxCell id="Hv0pnSTbvKc9YN80Ujr7-95" value="price" style="rounded=0;whiteSpace=wrap;html=1;" vertex="1" parent="1">
          <mxGeometry x="485" y="380" width="170" height="30" as="geometry" />
        </mxCell>
        <mxCell id="Hv0pnSTbvKc9YN80Ujr7-96" value="product_name" style="rounded=0;whiteSpace=wrap;html=1;align=center;" vertex="1" parent="1">
          <mxGeometry x="485" y="350" width="170" height="30" as="geometry" />
        </mxCell>
        <mxCell id="Hv0pnSTbvKc9YN80Ujr7-97" value="product_id" style="rounded=0;whiteSpace=wrap;html=1;" vertex="1" parent="1">
          <mxGeometry x="485" y="320" width="170" height="30" as="geometry" />
        </mxCell>
        <mxCell id="Hv0pnSTbvKc9YN80Ujr7-98" value="" style="endArrow=none;html=1;rounded=0;" edge="1" parent="1">
          <mxGeometry width="50" height="50" relative="1" as="geometry">
            <mxPoint x="625" y="440" as="sourcePoint" />
            <mxPoint x="625" y="320" as="targetPoint" />
          </mxGeometry>
        </mxCell>
        <mxCell id="Hv0pnSTbvKc9YN80Ujr7-99" value="" style="endArrow=none;html=1;rounded=0;" edge="1" parent="1" source="Hv0pnSTbvKc9YN80Ujr7-104">
          <mxGeometry width="50" height="50" relative="1" as="geometry">
            <mxPoint x="525" y="440" as="sourcePoint" />
            <mxPoint x="525" y="320" as="targetPoint" />
          </mxGeometry>
        </mxCell>
        <mxCell id="Hv0pnSTbvKc9YN80Ujr7-100" value="string" style="text;html=1;align=center;verticalAlign=middle;whiteSpace=wrap;rounded=0;" vertex="1" parent="1">
          <mxGeometry x="485" y="350" width="50" height="30" as="geometry" />
        </mxCell>
        <mxCell id="Hv0pnSTbvKc9YN80Ujr7-101" value="decimal" style="text;html=1;align=center;verticalAlign=middle;whiteSpace=wrap;rounded=0;" vertex="1" parent="1">
          <mxGeometry x="480" y="380" width="50" height="30" as="geometry" />
        </mxCell>
        <mxCell id="Hv0pnSTbvKc9YN80Ujr7-102" value="int" style="text;html=1;align=center;verticalAlign=middle;whiteSpace=wrap;rounded=0;" vertex="1" parent="1">
          <mxGeometry x="485" y="410" width="50" height="30" as="geometry" />
        </mxCell>
        <mxCell id="Hv0pnSTbvKc9YN80Ujr7-103" value="" style="endArrow=none;html=1;rounded=0;entryX=0.75;entryY=0;entryDx=0;entryDy=0;" edge="1" parent="1" target="Hv0pnSTbvKc9YN80Ujr7-104">
          <mxGeometry width="50" height="50" relative="1" as="geometry">
            <mxPoint x="525" y="440" as="sourcePoint" />
            <mxPoint x="525" y="320" as="targetPoint" />
          </mxGeometry>
        </mxCell>
        <mxCell id="Hv0pnSTbvKc9YN80Ujr7-104" value="int" style="text;html=1;align=center;verticalAlign=middle;whiteSpace=wrap;rounded=0;" vertex="1" parent="1">
          <mxGeometry x="480" y="320" width="60" height="30" as="geometry" />
        </mxCell>
        <mxCell id="Hv0pnSTbvKc9YN80Ujr7-105" value="PK" style="text;html=1;align=center;verticalAlign=middle;whiteSpace=wrap;rounded=0;" vertex="1" parent="1">
          <mxGeometry x="607.5" y="320" width="60" height="30" as="geometry" />
        </mxCell>
        <mxCell id="Hv0pnSTbvKc9YN80Ujr7-106" value="SALE_ITEM" style="rounded=0;whiteSpace=wrap;html=1;" vertex="1" parent="1">
          <mxGeometry x="315" y="520" width="170" height="40" as="geometry" />
        </mxCell>
        <mxCell id="Hv0pnSTbvKc9YN80Ujr7-107" value="quantity" style="rounded=0;whiteSpace=wrap;html=1;" vertex="1" parent="1">
          <mxGeometry x="315" y="650" width="170" height="30" as="geometry" />
        </mxCell>
        <mxCell id="Hv0pnSTbvKc9YN80Ujr7-108" value="product_id" style="rounded=0;whiteSpace=wrap;html=1;" vertex="1" parent="1">
          <mxGeometry x="315" y="620" width="170" height="30" as="geometry" />
        </mxCell>
        <mxCell id="Hv0pnSTbvKc9YN80Ujr7-109" value="sale_id" style="rounded=0;whiteSpace=wrap;html=1;align=center;" vertex="1" parent="1">
          <mxGeometry x="315" y="590" width="170" height="30" as="geometry" />
        </mxCell>
        <mxCell id="Hv0pnSTbvKc9YN80Ujr7-110" value="sale_item_id" style="rounded=0;whiteSpace=wrap;html=1;" vertex="1" parent="1">
          <mxGeometry x="315" y="560" width="170" height="30" as="geometry" />
        </mxCell>
        <mxCell id="Hv0pnSTbvKc9YN80Ujr7-112" value="" style="endArrow=none;html=1;rounded=0;" edge="1" parent="1" source="Hv0pnSTbvKc9YN80Ujr7-117">
          <mxGeometry width="50" height="50" relative="1" as="geometry">
            <mxPoint x="355" y="680" as="sourcePoint" />
            <mxPoint x="355" y="560" as="targetPoint" />
          </mxGeometry>
        </mxCell>
        <mxCell id="Hv0pnSTbvKc9YN80Ujr7-113" value="int" style="text;html=1;align=center;verticalAlign=middle;whiteSpace=wrap;rounded=0;" vertex="1" parent="1">
          <mxGeometry x="315" y="590" width="50" height="30" as="geometry" />
        </mxCell>
        <mxCell id="Hv0pnSTbvKc9YN80Ujr7-114" value="int" style="text;html=1;align=center;verticalAlign=middle;whiteSpace=wrap;rounded=0;" vertex="1" parent="1">
          <mxGeometry x="315" y="620" width="50" height="30" as="geometry" />
        </mxCell>
        <mxCell id="Hv0pnSTbvKc9YN80Ujr7-115" value="int" style="text;html=1;align=center;verticalAlign=middle;whiteSpace=wrap;rounded=0;" vertex="1" parent="1">
          <mxGeometry x="315" y="650" width="50" height="30" as="geometry" />
        </mxCell>
        <mxCell id="Hv0pnSTbvKc9YN80Ujr7-117" value="int" style="text;html=1;align=center;verticalAlign=middle;whiteSpace=wrap;rounded=0;" vertex="1" parent="1">
          <mxGeometry x="310" y="560" width="60" height="30" as="geometry" />
        </mxCell>
        <mxCell id="Hv0pnSTbvKc9YN80Ujr7-131" value="subtotal" style="rounded=0;whiteSpace=wrap;html=1;" vertex="1" parent="1">
          <mxGeometry x="315" y="680" width="170" height="30" as="geometry" />
        </mxCell>
        <mxCell id="Hv0pnSTbvKc9YN80Ujr7-116" value="" style="endArrow=none;html=1;rounded=0;entryX=0.75;entryY=0;entryDx=0;entryDy=0;exitX=0.235;exitY=1;exitDx=0;exitDy=0;exitPerimeter=0;" edge="1" parent="1" source="Hv0pnSTbvKc9YN80Ujr7-131" target="Hv0pnSTbvKc9YN80Ujr7-117">
          <mxGeometry width="50" height="50" relative="1" as="geometry">
            <mxPoint x="355" y="680" as="sourcePoint" />
            <mxPoint x="355" y="560" as="targetPoint" />
          </mxGeometry>
        </mxCell>
        <mxCell id="Hv0pnSTbvKc9YN80Ujr7-111" value="" style="endArrow=none;html=1;rounded=0;exitX=0.824;exitY=0.933;exitDx=0;exitDy=0;exitPerimeter=0;" edge="1" parent="1" source="Hv0pnSTbvKc9YN80Ujr7-131">
          <mxGeometry width="50" height="50" relative="1" as="geometry">
            <mxPoint x="455" y="680" as="sourcePoint" />
            <mxPoint x="455" y="560" as="targetPoint" />
          </mxGeometry>
        </mxCell>
        <mxCell id="Hv0pnSTbvKc9YN80Ujr7-132" value="decimal" style="text;html=1;align=center;verticalAlign=middle;whiteSpace=wrap;rounded=0;" vertex="1" parent="1">
          <mxGeometry x="305" y="680" width="60" height="30" as="geometry" />
        </mxCell>
        <mxCell id="Hv0pnSTbvKc9YN80Ujr7-133" value="PK" style="text;html=1;align=center;verticalAlign=middle;whiteSpace=wrap;rounded=0;" vertex="1" parent="1">
          <mxGeometry x="440" y="560" width="60" height="30" as="geometry" />
        </mxCell>
        <mxCell id="Hv0pnSTbvKc9YN80Ujr7-134" value="FK" style="text;html=1;align=center;verticalAlign=middle;whiteSpace=wrap;rounded=0;" vertex="1" parent="1">
          <mxGeometry x="440" y="590" width="60" height="30" as="geometry" />
        </mxCell>
        <mxCell id="Hv0pnSTbvKc9YN80Ujr7-135" value="FK" style="text;html=1;align=center;verticalAlign=middle;whiteSpace=wrap;rounded=0;" vertex="1" parent="1">
          <mxGeometry x="440" y="620" width="60" height="30" as="geometry" />
        </mxCell>
        <mxCell id="Hv0pnSTbvKc9YN80Ujr7-136" style="edgeStyle=orthogonalEdgeStyle;rounded=0;orthogonalLoop=1;jettySize=auto;html=1;entryX=0.128;entryY=-0.064;entryDx=0;entryDy=0;entryPerimeter=0;curved=1;" edge="1" parent="1" source="Hv0pnSTbvKc9YN80Ujr7-14" target="Hv0pnSTbvKc9YN80Ujr7-27">
          <mxGeometry relative="1" as="geometry" />
        </mxCell>
        <mxCell id="Hv0pnSTbvKc9YN80Ujr7-140" style="edgeStyle=orthogonalEdgeStyle;rounded=0;orthogonalLoop=1;jettySize=auto;html=1;entryX=0.808;entryY=0.079;entryDx=0;entryDy=0;entryPerimeter=0;curved=1;" edge="1" parent="1" source="Hv0pnSTbvKc9YN80Ujr7-81" target="Hv0pnSTbvKc9YN80Ujr7-27">
          <mxGeometry relative="1" as="geometry" />
        </mxCell>
        <mxCell id="Hv0pnSTbvKc9YN80Ujr7-149" value="makes" style="text;html=1;align=center;verticalAlign=middle;whiteSpace=wrap;rounded=0;" vertex="1" parent="1">
          <mxGeometry x="70" y="220" width="60" height="30" as="geometry" />
        </mxCell>
        <mxCell id="Hv0pnSTbvKc9YN80Ujr7-150" value="records" style="text;html=1;align=center;verticalAlign=middle;whiteSpace=wrap;rounded=0;" vertex="1" parent="1">
          <mxGeometry x="380" y="220" width="60" height="30" as="geometry" />
        </mxCell>
        <mxCell id="Hv0pnSTbvKc9YN80Ujr7-151" value="contains" style="text;html=1;align=center;verticalAlign=middle;whiteSpace=wrap;rounded=0;" vertex="1" parent="1">
          <mxGeometry x="180" y="460" width="60" height="30" as="geometry" />
        </mxCell>
        <mxCell id="Hv0pnSTbvKc9YN80Ujr7-153" value="is" style="text;html=1;align=center;verticalAlign=middle;whiteSpace=wrap;rounded=0;" vertex="1" parent="1">
          <mxGeometry x="547.5" y="460" width="60" height="30" as="geometry" />
        </mxCell>
      </root>
    </mxGraphModel>
  </diagram>
</mxfile>
